#!OML:ASF Y:\EmotionMaleHayes\Project 1\Capture day 1\Session 1\Male1.ASF
:FULLY-SPECIFIED
:DEGREES
293
root -26.1965 16.8979 1.37579 38.1181 86.5535 39.927
lowerback 5.90444 0.826788 0.390467
upperback 3.30234 1.19213 0.161809
thorax 0.0912233 0.630604 -0.120653
lowerneck -24.5433 2.86803 5.29561
upperneck 30.6256 3.17705 -2.16768
head 14.8828 1.81233 -1.13345
rclavicle -1.83876e-015 4.77083e-015
rhumerus 39.1323 23.875 -39.3532
rradius 41.5555
rwrist -4.06932
rhand 0.111781 -31.5587
rfingers 7.12502
rthumb 25.6974 -59.844
lclavicle -1.83876e-015 4.77083e-015
lhumerus 34.7368 -23.5136 31.0191
lradius 42.73
lwrist 6.01325
lhand -8.29779 -23.9305
lfingers 7.12502
lthumb 17.6223 5.29091
rfemur 18.2416 -0.741375 11.8798
rtibia 4.49553
rfoot -20.7095 -5.89268
rtoes -5.40965
lfemur -2.33141 3.59604 -9.81051
ltibia 5.69228
lfoot -3.9213 11.1157
ltoes -7.77727
294
root -26.1532 16.8884 1.31127 37.8122 86.3504 39.5183
lowerback 6.21415 0.911246 0.0856888
upperback 3.05364 1.28441 0.17287
thorax -0.342755 0.669989 0.047359
lowerneck -24.3626 2.76792 5.04448
upperneck 30.7684 3.06271 -1.88542
head 14.8914 1.78339 -0.997141
rclavicle -3.42904e-015 4.37326e-015
rhumerus 39.01 23.9055 -39.4565
rradius 41.5376
rwrist -3.9975
rhand -0.0340949 -31.6819
rfingers 7.12502
rthumb 25.5577 -59.9874
lclavicle -3.42904e-015 4.37326e-015
lhumerus 34.7289 -23.654 31.3424
lradius 42.6144
lwrist 5.79834
lhand -8.63052 -23.8036
lfingers 7.12502
lthumb 17.3021 5.44627
rfemur 18.179 -0.587438 11.5124
rtibia 4.58052
rfoot -20.7183 -6.20834
rtoes -6.86126
lfemur -2.40827 3.37751 -10.1686
ltibia 5.84716
lfoot -4.15627 11.4327
ltoes -5.00777
295
root -26.107 16.8881 1.25227 37.2459 86.1143 38.9428
lowerback 6.06532 0.979399 -0.218499
upperback 3.19618 1.36153 0.120517
thorax -0.119244 0.707003 0.163943
lowerneck -24.403 2.75145 5.01133
upperneck 30.7376 3.0035 -1.76792
head 14.8808 1.76995 -0.954308
rclavicle 2.18663e-015 -5.96354e-015
rhumerus 39.2475 23.5097 -39.6253
rradius 41.4841
rwrist -3.86856
rhand 0.0181399 -31.8189
rfingers 7.12502
rthumb 25.6077 -60.1172
lclavicle 2.18663e-015 -5.96354e-015
lhumerus 35.0657 -23.3907 31.2929
lradius 42.4642
lwrist 5.78025
lhand -8.94658 -23.7831
lfingers 7.12502
lthumb 16.9979 5.49317
rfemur 18.267 -0.169548 11.2953
rtibia 4.59869
rfoot -20.7534 -6.45474
rtoes -6.35725
lfemur -2.31542 3.34987 -10.498
ltibia 5.92008
lfoot -4.45028 11.6438
ltoes -3.19301
296
root -26.0571 16.8937 1.19565 40.6104 85.6429 42.4166
lowerback 6.17861 1.01992 -0.750328
upperback 3.25362 1.38782 -0.163666
thorax -0.128099 0.717446 0.167202
lowerneck -24.4844 2.82185 5.20896
upperneck 30.8619 3.04375 -1.81945
head 14.9627 1.80475 -1.00042
rclavicle -5.86415e-015 4.77083e-015
rhumerus 39.2886 23.1866 -40.2565
rradius 41.3326
rwrist -3.58823
rhand -0.0581297 -31.6262
rfingers 7.12502
rthumb 25.5347 -59.935
lclavicle -5.86415e-015 4.77083e-015
lhumerus 35.1947 -23.229 31.2172
lradius 42.4014
lwrist 5.78443
lhand -9.06787 -23.7664
lfingers 7.12502
lthumb 16.8811 5.51992
rfemur 18.5071 0.202763 10.6017
rtibia 4.60549
rfoot -20.5618 -6.59209
rtoes -6.20686
lfemur -2.1408 3.67866 -11.2617
ltibia 6.25049
lfoot -4.67023 11.3875
ltoes -3.68842
297
root -26.0034 16.9044 1.13048 43.5796 84.9469 45.4944
lowerback 6.25051 1.13175 -1.62464
upperback 3.31361 1.49158 -0.287801
thorax -0.124489 0.761265 0.522256
lowerneck -24.4795 2.83153 5.21032
upperneck 30.914 3.1447 -2.04704
head 14.9942 1.81489 -1.07547
rclavicle -9.24349e-015 1.19271e-015
rhumerus 39.4123 23.0954 -40.2892
rradius 41.3333
rwrist -3.58005
rhand -0.221655 -31.3907
rfingers 7.12502
rthumb 25.378 -59.7218
lclavicle -9.24349e-015 1.19271e-015
lhumerus 35.0917 -23.0148 31.6483
lradius 42.3853
lwrist 5.80067
lhand -8.93663 -23.6302
lfingers 7.12502
lthumb 17.0074 5.64526
rfemur 18.6444 0.285847 9.46052
rtibia 4.72895
rfoot -20.2016 -6.50578
rtoes -7.07088
lfemur -1.88207 3.85224 -12.3041
ltibia 6.53446
lfoot -4.83876 11.3422
ltoes -5.83418
298
root -25.9665 16.9156 1.06856 43.8376 84.7366 45.8182
lowerback 6.51195 1.168 -1.87573
upperback 3.29367 1.52067 -0.389785
thorax -0.293654 0.775838 0.5502
lowerneck -24.3188 2.82591 5.22259
upperneck 30.867 3.14516 -2.05374
head 14.9379 1.81717 -1.08143
rclavicle 8.89561e-015 2.78299e-015
rhumerus 39.3748 23.0989 -40.2872
rradius 41.4891
rwrist -3.83775
rhand -0.437511 -31.3324
rfingers 7.12502
rthumb 25.1712 -59.6926
lclavicle 8.89561e-015 2.78299e-015
lhumerus 35.1473 -22.9558 31.7434
lradius 42.3375
lwrist 5.93271
lhand -8.92365 -23.6105
lfingers 7.12502
lthumb 17.0199 5.66389
rfemur 18.7579 0.579227 9.14911
rtibia 4.77314
rfoot -19.9391 -6.94021
rtoes -7.06813
lfemur -1.89212 3.77739 -12.7682
ltibia 7.02374
lfoot -5.22862 11.3285
ltoes -6.66764
299
root -25.9228 16.9352 1.00427 38.5775 84.5679 40.6785
lowerback 6.67001 1.29593 -1.64718
upperback 3.36251 1.70369 -0.430072
thorax -0.307155 0.871101 0.365609
lowerneck -24.26 2.85845 5.3018
upperneck 30.8677 3.16143 -2.04222
head 14.9279 1.83627 -1.08725
rclavicle -2.04748e-014 -3.18055e-015
rhumerus 39.3407 22.9349 -40.5755
rradius 41.4678
rwrist -3.85079
rhand -0.452882 -31.2193
rfingers 7.12502
rthumb 25.1565 -59.5817
lclavicle -2.04748e-014 -3.18055e-015
lhumerus 35.3247 -22.8232 31.8722
lradius 42.177
lwrist 5.87949
lhand -9.08868 -23.6171
lfingers 7.12502
lthumb 16.8611 5.67086
rfemur 18.8088 1.03584 9.29273
rtibia 4.91676
rfoot -19.6134 -7.05789
rtoes -6.653
lfemur -1.58302 3.75916 -12.6874
ltibia 7.21504
lfoot -5.6925 11.5371
ltoes -6.78682
300
root -25.8779 16.9612 0.939223 33.6762 84.3432 35.7759
lowerback 6.73893 1.42155 -1.51215
upperback 3.38466 1.87811 -0.401639
thorax -0.322595 0.959746 0.305603
lowerneck -24.3589 2.88234 5.35737
upperneck 31.0247 3.21558 -2.14959
head 15.0274 1.85225 -1.1299
rclavicle -1.42131e-014 0
rhumerus 39.3831 22.732 -40.9675
rradius 41.2457
rwrist -3.59417
rhand -0.297791 -31.027
rfingers 7.12502
rthumb 25.3051 -59.3685
lclavicle -1.42131e-014 0
lhumerus 35.3619 -22.6528 32.1986
lradius 42.048
lwrist 5.89031
lhand -9.05598 -23.5138
lfingers 7.12502
lthumb 16.8925 5.77153
rfemur 18.5883 1.21048 9.29178
rtibia 5.33569
rfoot -19.243 -6.93219
rtoes -7.35236
lfemur -1.2806 3.8362 -12.6195
ltibia 7.16633
lfoot -5.85348 11.7569
ltoes -7.58842
301
root -25.8291 16.9846 0.87229 29.9301 84.1399 31.9321
lowerback 6.76993 1.48033 -1.42472
upperback 3.31349 1.95771 -0.327806
thorax -0.414247 0.999433 0.324709
lowerneck -24.4449 2.85987 5.23001
upperneck 31.2448 3.27299 -2.22135
head 15.1484 1.85441 -1.12616
rclavicle 6.06293e-015 9.54166e-015
rhumerus 39.5063 22.7829 -41.1094
rradius 41.092
rwrist -3.5555
rhand -0.375874 -30.9974
rfingers 7.12502
rthumb 25.2303 -59.3494
lclavicle 6.06293e-015 9.54166e-015
lhumerus 35.168 -22.5607 32.4936
lradius 41.9985
lwrist 6.02828
lhand -9.01816 -23.4931
lfingers 7.12502
lthumb 16.929 5.78914
rfemur 18.2823 1.26885 9.25721
rtibia 5.81079
rfoot -18.9293 -6.95854
rtoes -8.52742
lfemur -0.986049 3.9283 -12.6324
ltibia 6.91863
lfoot -6.01203 11.9048
ltoes -6.85749
302
root -25.7798 17.0063 0.80495 24.3445 84.011 26.2776
lowerback 6.62429 1.51972 -1.00121
upperback 3.40531 2.03977 -0.271801
thorax -0.22845 1.044 0.145529
lowerneck -24.5767 2.88943 5.20975
upperneck 31.3031 3.31667 -2.21967
head 15.2062 1.86893 -1.1124
rclavicle 4.96962e-015 -4.37326e-015
rhumerus 39.8124 22.7684 -41.0846
rradius 41.031
rwrist -3.68042
rhand -0.46642 -31.1455
rfingers 7.12502
rthumb 25.1435 -59.5097
lclavicle 4.96962e-015 -4.37326e-015
lhumerus 35.2199 -22.4409 32.3378
lradius 42.0125
lwrist 6.13786
lhand -9.16475 -23.5166
lfingers 7.12502
lthumb 16.7878 5.77761
rfemur 18.0843 1.37527 9.55759
rtibia 6.08788
rfoot -18.3824 -7.11318
rtoes -9.78725
lfemur -0.643175 4.32637 -12.2869
ltibia 6.69263
lfoot -6.25911 11.8032
ltoes -5.0743
303
root -25.7304 17.0301 0.738101 19.9338 83.8769 21.8075
lowerback 6.48298 1.59085 -0.726703
upperback 3.49098 2.15388 -0.198906
thorax -0.0562466 1.10361 0.0652483
lowerneck -24.5868 2.92683 5.24105
upperneck 31.2343 3.36988 -2.26866
head 15.1811 1.88543 -1.1276
rclavicle -2.47984e-014 3.57812e-015
rhumerus 40.036 22.8989 -40.5843
rradius 41.2029
rwrist -3.99012
rhand -0.310257 -31.4172
rfingers 7.12502
rthumb 25.2932 -59.7603
lclavicle -2.47984e-014 3.57812e-015
lhumerus 35.4317 -22.4092 32.2318
lradius 41.9592
lwrist 6.16311
lhand -9.17212 -23.4049
lfingers 7.12502
lthumb 16.7808 5.88988
rfemur 17.9348 1.35952 9.67999
rtibia 6.27898
rfoot -17.6958 -7.06746
rtoes -10.5371
lfemur -0.338215 4.65379 -12.031
ltibia 6.51315
lfoot -6.36561 11.7302
ltoes -4.6316
304
root -25.6756 17.0533 0.670212 18.1709 83.6355 20.0331
lowerback 6.94872 1.65652 -0.568927
upperback 3.1554 2.23511 -0.324526
thorax -0.649196 1.14494 -0.179319
lowerneck -24.4542 2.91123 5.30218
upperneck 31.4604 3.33038 -2.20812
head 15.2548 1.8945 -1.12117
rclavicle -4.94477e-015 7.95139e-016
rhumerus 39.7593 23.4813 -40.3834
rradius 41.3613
rwrist -4.34611
rhand -0.263904 -31.5506
rfingers 7.12502
rthumb 25.3376 -59.8874
lclavicle -4.94477e-015 7.95139e-016
lhumerus 35.3098 -22.8227 32.2056
lradius 41.8346
lwrist 5.99417
lhand -8.94726 -23.2686
lfingers 7.12502
lthumb 16.9972 6.00772
rfemur 17.8373 1.32408 9.38329
rtibia 6.54794
rfoot -17.264 -6.64344
rtoes -9.62292
lfemur 0.0807565 4.71972 -12.1851
ltibia 6.213
lfoot -6.48035 11.9233
ltoes -4.85713
305
root -25.6197 17.0746 0.599485 18.1362 83.2894 20.005
lowerback 6.28583 1.65313 -0.92762
upperback 3.58839 2.23019 -0.245946
thorax 0.147293 1.13938 0.132854
lowerneck -24.7225 3.03914 5.34193
upperneck 31.2108 3.55365 -2.47874
head 15.2169 1.93916 -1.19517
rclavicle 5.46658e-015 -1.05356e-014
rhumerus 40.7244 23.3788 -39.7654
rradius 41.1977
rwrist -4.47923
rhand -0.277576 -31.3663
rfingers 7.12502
rthumb 25.3245 -59.705
lclavicle 5.46658e-015 -1.05356e-014
lhumerus 35.4616 -22.1049 32.4159
lradius 41.5382
lwrist 5.67514
lhand -8.77017 -23.2126
lfingers 7.12502
lthumb 17.1677 6.04893
rfemur 17.705 1.44363 8.90436
rtibia 6.90748
rfoot -16.9881 -6.28831
rtoes -8.45656
lfemur 0.515017 4.8627 -12.613
ltibia 5.92855
lfoot -6.70816 12.1059
ltoes -4.56166
306
root -25.5658 17.0938 0.529349 17.9248 82.9191 19.7174
lowerback 6.41822 1.71528 -0.943436
upperback 3.40141 2.30287 -0.457616
thorax -0.111101 1.17661 -0.0881698
lowerneck -24.6406 3.11101 5.57648
upperneck 31.2762 3.56453 -2.45947
head 15.2357 1.97844 -1.2253
rclavicle 5.71506e-016 7.95139e-016
rhumerus 40.6687 23.4673 -40.1329
rradius 40.9971
rwrist -4.15391
rhand -0.141452 -30.9341
rfingers 7.12502
rthumb 25.4549 -59.2543
lclavicle 5.71506e-016 7.95139e-016
lhumerus 35.5015 -22.38 32.029
lradius 41.5298
lwrist 5.81657
lhand -8.35681 -23.002
lfingers 7.12502
lthumb 17.5655 6.22449
rfemur 17.405 1.48608 8.43364
rtibia 7.35344
rfoot -16.5317 -6.11498
rtoes -9.09843
lfemur 0.870477 4.92321 -13.0135
ltibia 5.57775
lfoot -6.90141 12.3438
ltoes -4.1333
